<svg width="60" height="60" viewBox="0 0 2048 1853" fill="none" xmlns="http://www.w3.org/2000/svg">
<path d="M1058.21 1617.23C1039.4 1622.08 1031.55 1622.16 601.034 1621.93C249.327 1621.74 159.805 1621.05 146.817 1618.46C107.461 1610.56 76.2993 1583.24 64.1428 1545.93L59.0307 1530.28V925.682C59.0307 877.984 59.0307 833.953 59.0063 793.293C58.9574 327.902 58.9329 304.841 69.6952 289.261C71.1872 287.095 72.8994 285.077 74.8317 282.001C89.7277 258.57 118.981 239.176 147.306 233.982C156.307 232.333 271.219 231.694 482.404 232.137L803.829 232.801L824.84 243.138C845.777 253.451 846.365 253.992 985.051 393.789C1112.78 522.511 1125.01 535.555 1133.47 552.045C1141.15 567.009 1143.06 573.876 1145.04 593.369C1148.22 624.897 1148.3 1070.84 1145.12 1070.84C1143.79 1070.84 1125.65 1053.89 1104.76 1033.19L1066.77 995.531V637.671L956.091 637.622C837.314 637.572 826.944 636.735 800.038 624.725C780.03 615.815 756.304 591.006 747.303 569.569L740.234 552.759L738.791 310.329H162.887L154.13 316.335C151.758 317.959 149.727 318.427 147.966 319.411C137.18 325.466 137.204 350.939 137.277 782.956C137.302 826.052 137.302 873.209 137.302 924.771C137.302 1477.19 137.546 1510.66 141.582 1518.74C143.93 1523.44 149.605 1529.81 154.179 1532.89L162.495 1538.47H1041.58L1049.89 1532.89C1065.28 1522.55 1066.77 1516.23 1066.77 1460.65V1411.11L1104.98 1373.77C1125.99 1353.22 1143.87 1337.12 1144.72 1337.98C1145.58 1338.82 1146.27 1380.69 1146.27 1430.99C1146.27 1518.49 1146.02 1523.24 1140.86 1539.73C1128.48 1579.31 1099.33 1606.65 1058.21 1617.23ZM952.3 1422.7C940.534 1426 940.265 1425.95 927.351 1420.14C907.367 1411.13 906.658 1408.92 905.802 1352.04L905.068 1302.2L807.963 1302.15C712.032 1302.12 710.76 1302.05 701.294 1296.61C695.301 1293.19 689.529 1287.04 686.007 1280.27C680.479 1269.74 680.307 1267.64 680.307 1205.87C680.307 1135.11 681.53 1128.07 695.717 1117.36L703.544 1111.45L904.114 1108.99L905.337 1059.3L906.56 1009.63L913.898 1001.78C927.204 987.557 944.741 983.496 959.882 991.101C969.128 995.728 1148.64 1174.86 1153.77 1184.55C1158.59 1193.68 1158.18 1213.23 1152.99 1222.75C1150.64 1227.08 1106.54 1273.25 1055.03 1325.38C979.523 1401.78 959.589 1420.66 952.3 1422.7ZM1829.91 1559.37C1821.01 1562.1 1803.47 1563.95 1777.94 1564.86L1739.41 1566.24V1474.48H1768.86C1802.23 1474.48 1812.69 1471.06 1823.31 1456.66C1834.07 1442.09 1834.81 1435.79 1834.81 1358.95C1834.81 1302.22 1835.61 1282.88 1838.45 1271.9C1846.13 1242.29 1863.06 1218.42 1885.46 1205.72L1898.74 1198.16L1884.51 1188.98C1862.79 1174.95 1849.92 1159.05 1840.43 1134.57C1836.86 1125.36 1836.05 1110.72 1834.93 1035.16C1833.41 934.592 1833.27 933.902 1812.99 919.48C1802.94 912.342 1801.54 912.071 1771.02 911.235L1739.41 910.373V822.262H1775.15C1815.48 822.262 1832.21 825.486 1855.6 837.767C1886.59 854.036 1908.23 878.845 1920.02 911.555C1926.36 929.152 1926.43 930.161 1927.73 1017.93C1928.9 1097.94 1929.47 1107.37 1933.57 1115.15C1942.92 1132.89 1953.88 1140.94 1975.45 1145.91L1987.68 1148.74L1989 1252.97L1978.56 1253.02C1956.66 1253.15 1935.82 1269.71 1930.42 1291.27C1928.8 1297.72 1927.73 1330.35 1927.73 1374.04C1927.68 1454.4 1926.09 1466.68 1912.39 1492.72C1896.88 1522.23 1863.79 1548.96 1829.91 1559.37ZM1465.46 1474.48V1565.55L1435.5 1565.25C1419.02 1565.08 1399.94 1564.1 1393.06 1563.09C1341.14 1555.43 1298.58 1519.23 1283.12 1469.56C1279.6 1458.26 1278.74 1443 1277.93 1377.27C1277.42 1333.85 1275.83 1294 1274.41 1288.49C1271.33 1276.4 1258.31 1261.44 1246.65 1256.54C1241.98 1254.57 1233.15 1252.97 1227.06 1252.97H1215.98V1201.56C1215.98 1199.93 1215.98 1198.38 1215.98 1196.86C1215.98 1161.66 1215.98 1151.35 1220.62 1148.35C1222.53 1147.12 1225.27 1147.12 1229.11 1147.14C1229.5 1147.14 1229.92 1147.14 1230.36 1147.14C1234 1147.14 1242.98 1143.55 1250.32 1139.14C1260.86 1132.84 1265.09 1128.31 1270.4 1117.78L1277.12 1104.42L1277.17 1027.95C1277.2 985.883 1278.3 943.92 1279.64 934.665C1286.86 884.457 1328.42 839.219 1379.66 825.781C1388.39 823.492 1405.78 822.262 1429.29 822.262H1465.46V910.275L1435.4 911.284C1408.91 912.17 1404.19 912.982 1395.66 918.249C1385.82 924.279 1382.99 927.036 1375.5 937.816C1371.78 943.132 1371.12 954.084 1369.88 1030.11C1368.55 1109.34 1368.02 1117.68 1363.2 1132.47C1354.44 1159.4 1336.17 1182.21 1314.13 1193.71L1305.89 1198.02L1316.87 1204.49C1331.77 1213.27 1352.51 1236.63 1359.48 1252.51C1368.16 1272.22 1369.97 1291.98 1370.02 1368.11C1370.07 1445.66 1370.61 1448.79 1385.8 1461.39C1398.32 1471.78 1409.4 1474.48 1439.46 1474.48H1465.46ZM890.563 919.529C884.497 922.679 843.576 923.172 582.958 923.172H282.348L274.252 917.634C262.169 909.364 256.592 900.282 255.442 887.041C254.195 872.421 259.821 860.361 271.586 852.461L279.902 846.874H891.15L899.246 855.02C918.423 874.316 913.971 907.346 890.563 919.529ZM641.27 741.042C635.962 742.543 565.958 743.454 460.17 743.429C297.586 743.404 287.166 743.134 277.749 738.827C266.009 733.461 258.231 724.305 254.342 711.261C250.526 698.438 256.69 681.997 268.797 672.694L277.554 665.975L459.974 665.335C637.43 664.719 642.615 664.843 650.222 669.543C678.375 686.92 672.725 732.255 641.27 741.042ZM606.684 1104.07C598.636 1108.82 593.72 1108.99 455.278 1109.26C376.591 1109.41 305.022 1108.85 296.29 1107.98C268.308 1105.23 254.733 1092.95 254.708 1070.4C254.708 1050.22 261.239 1039.56 277.921 1032.55C284.965 1029.59 312.14 1029 442.363 1029C449.016 1029 455.4 1029 461.54 1029C587.825 1028.98 606.586 1028.98 615.538 1038.41C617.544 1040.52 619.06 1043.08 621.164 1046.23C626.031 1053.52 626.79 1057.18 625.982 1070.2C624.931 1087.53 619.99 1096.17 606.684 1104.07ZM845.998 552.931C852.993 555.442 875.716 556.254 941.415 556.352C988.842 556.401 1027.64 555.786 1027.64 554.974C1027.64 552.685 824.008 347.248 821.734 347.248C820.633 347.248 819.752 386.848 819.777 435.236C819.826 515.004 820.242 524.135 824.277 533.069C829.561 544.735 833.67 548.501 845.998 552.931Z" fill="#F27631"/>
</svg>
